<?xml version="1.0" encoding="UTF-8"?>
<svg width="60px" height="60px" viewBox="0 0 60 60" version="1.1" xmlns="http://www.w3.org/2000/svg" xmlns:xlink="http://www.w3.org/1999/xlink">
    <!-- Generator: Sketch 52.6 (67491) - http://www.bohemiancoding.com/sketch -->
    <title>nemgray</title>
    <desc>Created with Sketch.</desc>
    <g id="Page-1" stroke="none" stroke-width="1" fill="none" fill-rule="evenodd" fill-opacity="0.334125906">
        <g id="nephos-white" fill="#9B9B9B" fill-rule="nonzero">
            <path d="M4.97499842,5.99999809 C5.52728299,5.99999809 5.9749981,5.55228298 5.9749981,4.99999841 C5.9749981,4.44771384 5.52728299,3.99999873 4.97499842,3.99999873 C4.42271384,3.99999873 3.97499873,4.44771384 3.97499873,4.99999841 C3.97499873,5.55228298 4.42271384,5.99999809 4.97499842,5.99999809 Z M7.97499746,54.9999825 C7.42271289,54.9999825 6.97499778,55.4476976 6.97499778,55.9999822 C6.97499778,56.5522668 7.42271289,56.9999819 7.97499746,56.9999819 C8.52728204,56.9999819 8.97499714,56.5522668 8.97499714,55.9999822 C8.97499714,55.4476976 8.52728204,54.9999825 7.97499746,54.9999825 Z M2.97499905,47.9999847 C2.42271448,47.9999847 1.97499937,48.4476998 1.97499937,48.9999844 C1.97499937,49.552269 2.42271448,49.9999841 2.97499905,49.9999841 C3.52728363,49.9999841 3.97499873,49.552269 3.97499873,48.9999844 C3.97499873,48.4476998 3.52728363,47.9999847 2.97499905,47.9999847 Z M13.9749956,2.99999905 C14.5272801,2.99999905 14.9749952,2.55228394 14.9749952,1.99999936 C14.9749952,1.44771479 14.5272801,0.999999682 13.9749956,0.999999682 C13.422711,0.999999682 12.9749959,1.44771479 12.9749959,1.99999936 C12.9749959,2.55228394 13.422711,2.99999905 13.9749956,2.99999905 Z M53.9749828,5.99999809 C54.5272674,5.99999809 54.9749825,5.55228298 54.9749825,4.99999841 C54.9749825,4.44771384 54.5272674,3.99999873 53.9749828,3.99999873 C53.4226983,3.99999873 52.9749832,4.44771384 52.9749832,4.99999841 C52.9749832,5.55228298 53.4226983,5.99999809 53.9749828,5.99999809 Z M42.5929865,29.9999905 C42.5929865,29.4477059 43.0407016,28.9999908 43.5929861,28.9999908 L59.9499809,28.9999908 C59.8516473,25.9306244 59.27991,22.8948513 58.2549815,19.9999936 L32.2379897,19.9999936 C31.6857052,19.9999936 31.2379901,19.5522785 31.2379901,18.999994 C31.2379901,18.4477094 31.6857052,17.9999943 32.2379897,17.9999943 L57.4619817,17.9999943 C56.8547749,16.6146029 56.1430549,15.2774117 55.3329824,13.9999955 L42.9749863,13.9999955 C42.4227018,13.9999955 41.9749867,13.5522804 41.9749867,12.9999959 C41.9749867,12.4477113 42.4227018,11.9999962 42.9749863,11.9999962 L53.9589828,11.9999962 C48.4799846,4.7179985 39.7689874,0 29.9749905,0 C17.6979944,0 7.12599773,7.41599764 2.48799921,17.9999943 L25.6359918,17.9999943 C26.1882764,17.9999943 26.6359915,18.4477094 26.6359915,18.999994 C26.6359915,19.5522785 26.1882764,19.9999936 25.6359918,19.9999936 L1.69499946,19.9999936 C0.670070961,22.8948513 0.0983336864,25.9306244 -2.73539413e-09,28.9999908 L9.71199691,28.9999908 C10.2642815,28.9999908 10.7119966,29.4477059 10.7119966,29.9999905 C10.7119966,30.552275 10.2642815,30.9999901 9.71199691,30.9999901 L-2.73539337e-09,30.9999901 C0.110421656,34.4277751 0.811717607,37.8107753 2.07299934,40.999987 L23.9179924,40.999987 C24.470277,40.999987 24.9179921,41.4477021 24.9179921,41.9999866 C24.9179921,42.5522712 24.470277,42.9999863 23.9179924,42.9999863 L2.94099906,42.9999863 C4.58164648,46.3898333 6.84261646,49.4424481 9.60699694,51.9999835 L33.7809893,51.9999835 C34.3332738,51.9999835 34.7809889,52.4476986 34.7809889,52.9999832 C34.7809889,53.5522677 34.3332738,53.9999828 33.7809893,53.9999828 L11.9959962,53.9999828 C17.1776799,57.9007265 23.4891908,60.0070208 29.9749905,59.9999809 C36.4607902,60.0070208 42.772301,57.9007265 47.9539848,53.9999828 L40.1779872,53.9999828 C39.6257027,53.9999828 39.1779875,53.5522677 39.1779875,52.9999832 C39.1779875,52.4476986 39.6257027,51.9999835 40.1779872,51.9999835 L50.342984,51.9999835 C53.1073645,49.4424481 55.3683345,46.3898333 57.0089819,42.9999863 L30.1489904,42.9999863 C29.5967058,42.9999863 29.1489907,42.5522712 29.1489907,41.9999866 C29.1489907,41.4477021 29.5967058,40.999987 30.1489904,40.999987 L57.8769816,40.999987 C59.1382633,37.8107753 59.8395593,34.4277751 59.9499809,30.9999901 L43.5929861,30.9999901 C43.0407016,30.9999901 42.5929865,30.552275 42.5929865,29.9999905 Z M34.541989,5.99999809 L42.8749864,5.99999809 C43.4272709,5.99999809 43.874986,6.4477132 43.874986,6.99999777 C43.874986,7.55228235 43.4272709,7.99999746 42.8749864,7.99999746 L34.541989,7.99999746 C33.9897044,7.99999746 33.5419893,7.55228235 33.5419893,6.99999777 C33.5419893,6.4477132 33.9897044,5.99999809 34.541989,5.99999809 Z M16.1809949,6.99999777 C16.1809949,6.4477132 16.62871,5.99999809 17.1809945,5.99999809 L27.5979912,5.99999809 C28.1502758,5.99999809 28.5979909,6.4477132 28.5979909,6.99999777 C28.5979909,7.55228235 28.1502758,7.99999746 27.5979912,7.99999746 L17.1809945,7.99999746 C16.62871,7.99999746 16.1809949,7.55228235 16.1809949,6.99999777 Z M23.9749924,13.9999955 C23.4227078,13.9999955 22.9749927,13.5522804 22.9749927,12.9999959 C22.9749927,12.4477113 23.4227078,11.9999962 23.9749924,11.9999962 L33.9749892,11.9999962 C34.5272738,11.9999962 34.9749889,12.4477113 34.9749889,12.9999959 C34.9749889,13.5522804 34.5272738,13.9999955 33.9749892,13.9999955 L23.9749924,13.9999955 Z M24.9749921,22.9999927 L34.9749889,22.9999927 C35.5272735,22.9999927 35.9749886,23.4477078 35.9749886,23.9999924 C35.9749886,24.5522769 35.5272735,24.9999921 34.9749889,24.9999921 L24.9749921,24.9999921 C24.4227075,24.9999921 23.9749924,24.5522769 23.9749924,23.9999924 C23.9749924,23.4477078 24.4227075,22.9999927 24.9749921,22.9999927 Z M5.9749981,24.9999921 C5.42271352,24.9999921 4.97499842,24.5522769 4.97499842,23.9999924 C4.97499842,23.4477078 5.42271352,22.9999927 5.9749981,22.9999927 L15.9749949,22.9999927 C16.5272795,22.9999927 16.9749946,23.4477078 16.9749946,23.9999924 C16.9749946,24.5522769 16.5272795,24.9999921 15.9749949,24.9999921 L5.9749981,24.9999921 Z M15.3239951,29.9999905 C15.3239951,29.4477059 15.7717102,28.9999908 16.3239948,28.9999908 L36.6009884,28.9999908 C37.1532729,28.9999908 37.600988,29.4477059 37.600988,29.9999905 C37.600988,30.552275 37.1532729,30.9999901 36.6009884,30.9999901 L16.3239948,30.9999901 C15.7717102,30.9999901 15.3239951,30.552275 15.3239951,29.9999905 Z M37.2519882,45.9999854 C37.8042727,45.9999854 38.2519878,46.4477005 38.2519878,46.9999851 C38.2519878,47.5522696 37.8042727,47.9999847 37.2519882,47.9999847 L16.9749946,47.9999847 C16.42271,47.9999847 15.9749949,47.5522696 15.9749949,46.9999851 C15.9749949,46.4477005 16.42271,45.9999854 16.9749946,45.9999854 L37.2519882,45.9999854 Z M43.974986,35.9999886 C43.974986,36.5522731 43.5272709,36.9999882 42.9749863,36.9999882 L22.6979928,36.9999882 C22.1457082,36.9999882 21.6979931,36.5522731 21.6979931,35.9999886 C21.6979931,35.447704 22.1457082,34.9999889 22.6979928,34.9999889 L42.9749863,34.9999889 C43.5272709,34.9999889 43.974986,35.447704 43.974986,35.9999886 Z" id="Shape"></path>
        </g>
    </g>
</svg>